<?xml version="1.0" encoding="UTF-8" standalone="no"?>
<!-- Created with Inkscape (http://www.inkscape.org/) -->

<svg
   width="1300"
   height="1950"
   viewBox="0 0 1300 1950"
   version="1.1"
   id="svg5"
   xml:space="preserve"
   inkscape:version="1.2.2 (732a01da63, 2022-12-09)"
   sodipodi:docname="me-line.svg"
   inkscape:export-filename="me-line.png"
   inkscape:export-xdpi="96"
   inkscape:export-ydpi="96"
   xmlns:inkscape="http://www.inkscape.org/namespaces/inkscape"
   xmlns:sodipodi="http://sodipodi.sourceforge.net/DTD/sodipodi-0.dtd"
   xmlns="http://www.w3.org/2000/svg"
   xmlns:svg="http://www.w3.org/2000/svg"><sodipodi:namedview
     id="namedview7"
     pagecolor="#505050"
     bordercolor="#eeeeee"
     borderopacity="1"
     inkscape:showpageshadow="0"
     inkscape:pageopacity="0"
     inkscape:pagecheckerboard="0"
     inkscape:deskcolor="#505050"
     inkscape:document-units="px"
     showgrid="false"
     inkscape:zoom="0.3441253"
     inkscape:cx="321.10397"
     inkscape:cy="924.08201"
     inkscape:window-width="1600"
     inkscape:window-height="837"
     inkscape:window-x="-8"
     inkscape:window-y="-8"
     inkscape:window-maximized="1"
     inkscape:current-layer="layer1" /><defs
     id="defs2" /><path
     d="M 0.00246213,140.39562 65.397425,140.71415 66.349777,126.38008 57.461141,96.119273 79.36528,44.516614 94.285495,43.561009 112.06276,96.119273 108.88825,107.90505 78.095475,96.437806 107.93589,109.49773 c 0,0 12.69806,-0.95561 13.01552,-2.22973 0.31745,-1.27415 -2.53962,-7.963377 -2.53962,-7.963377 l 7.61883,-6.68924 2.85707,-23.253048 -20.63433,5.415094 -3.49197,-7.007765 5.07922,-20.704766 0.95235,-14.652609 -9.52354,11.785792 -10.158438,-3.822414 -2.222159,-15.289682 3.650686,-15.2100404 9.285461,16.1656464 -3.015796,0.55744 -4.364955,-2.627918 -2.142796,2.229743 -2.380883,-1.114871 -4.444317,-2.946442 2.777694,6.848498 1.745985,-3.026083 2.61897,0.796339 4.761773,4.937294 1.904702,-4.140954 2.857063,-0.955606 6.90457,6.450331 -17.22173,-24.0493817 -2.539616,7.0873957 1.90471,-8.8393408 15.078946,-6.60959814 16.90427,26.35875894 -1.9047,25.642062 -3.96815,19.112087 -11.58697,-6.052158 12.69805,6.529966 10.95207,-4.618754 -1.42853,-21.023307 5.07922,1.274137 6.66648,3.663156 0.95235,14.493336 c 0,0 -0.31745,22.138175 0.15873,23.093772 0.47618,0.955605 1.11108,7.80412 1.11108,7.80412 v 4.937287 l 2.22216,33.92396 5.87284,7.16704 -1.58725,7.00777 -6.34902,-0.95561 -2.69834,-11.46725 4.12686,-1.91121 -3.96813,1.27414 -8.88864,-35.83518 -0.47618,-20.38623 0.79363,-28.508878 1.9047,-3.822415 -5.07921,45.550492 -6.50775,7.485571 11.90442,57.97335 9.20608,-1.43341 -1.58725,-9.39679 c 0,0 -8.72991,7.80411 -9.68227,7.80411 -0.95235,0 -10.95206,-5.09656 -10.95206,-5.09656 l 1.74597,-41.25026 -4.60304,1.4334 -0.15873,5.73363 h -8.41246 l -5.07921,-5.41509 -27.618268,-9.07825 -2.063433,10.8302 -2.222158,-13.2192 1.587256,-3.822424 6.507751,-16.40455 -0.317452,15.130411 -9.206086,27.234733 -6.825203,22.4567 -5.555399,21.97891 -3.17451,32.3313 8.888635,11.94506 17.777271,12.58212 11.428253,-53.35458 14.761473,-53.83241 c 0,0 2.53962,0.31854 2.53962,2.07047 0,1.75195 -4.44432,40.61321 -4.44432,40.61321 l 6.34902,-0.63707 -2.53961,-36.95005 7.61883,-3.82242 2.38089,69.12207 -6.66648,-1.59267 -0.95236,-26.11986 -26.665902,51.92119 -3.049098,13.79796 -9.244434,-6.72352 -0.781416,25.68241 3.038447,9.44581 6.276012,1.28764 -5.293692,-0.13161 -5.143983,13.83872 8.957979,3.01905 -6.47779,7.11293 9.478723,11.92762 13.05454,8.73967 2.216747,-23.70892 -16.699169,0.86463 18.133066,-1.73563 -19.862604,2.04213 5.396672,-50.8063 h 20.634332 l -5.39666,52.39899 6.50775,-52.23972 9.52353,-8.44116 3.49197,-37.90567 h 35.55454 l 3.49196,-31.85349 h -9.20608 l 0.31745,-5.73361 49.83984,0.31852"
     id="path4540"
     sodipodi:nodetypes="ccccccccccsccccccccccccccccccccccccccccccccccccccsccccccccccccccccccsccccccccccccccccccccscccccccccccccccccccccccccccccccccc"
     style="fill:none;stroke:#000000;stroke-width:1.01441;stroke-opacity:1" /></svg>
