<?xml version="1.0" encoding="UTF-8" standalone="no"?>
<!-- Created with Inkscape (http://www.inkscape.org/) -->

<svg
   width="1300"
   height="1950"
   viewBox="0 0 1300 1950"
   version="1.1"
   id="svg5"
   xml:space="preserve"
   inkscape:version="1.2.2 (732a01da63, 2022-12-09)"
   sodipodi:docname="me-line.svg"
   xmlns:inkscape="http://www.inkscape.org/namespaces/inkscape"
   xmlns:sodipodi="http://sodipodi.sourceforge.net/DTD/sodipodi-0.dtd"
   xmlns="http://www.w3.org/2000/svg"
   xmlns:svg="http://www.w3.org/2000/svg"><sodipodi:namedview
     id="namedview7"
     pagecolor="#505050"
     bordercolor="#eeeeee"
     borderopacity="1"
     inkscape:showpageshadow="0"
     inkscape:pageopacity="0"
     inkscape:pagecheckerboard="0"
     inkscape:deskcolor="#505050"
     inkscape:document-units="px"
     showgrid="false"
     inkscape:zoom="0.3441253"
     inkscape:cx="321.10397"
     inkscape:cy="924.08201"
     inkscape:window-width="1600"
     inkscape:window-height="837"
     inkscape:window-x="-8"
     inkscape:window-y="-8"
     inkscape:window-maximized="1"
     inkscape:current-layer="layer1" /><defs
     id="defs2" /><g
     inkscape:label="Lag 1"
     inkscape:groupmode="layer"
     id="layer1"><path
       style="fill:none;stroke:#000000;stroke-opacity:1;stroke-width:2;stroke-dasharray:none;fill-opacity:1"
       d="m 2.0547945,908.21918 423.2876755,2.05479 6.16438,-92.46575 -57.53425,-195.20548 141.78082,-332.87671 96.57535,-6.16439 115.06849,339.0411 -20.54794,76.0274 -199.31507,-73.97261 193.15068,84.24658 c 0,0 82.19178,-6.16438 84.24658,-14.38356 2.05479,-8.21918 -16.43836,-51.36987 -16.43836,-51.36987 L 817.80822,600 836.30137,450 702.73973,484.93151 680.13699,439.72603 713.0137,306.16438 l 6.16438,-94.52054 -61.64383,76.02739 -65.75343,-24.65753 -14.38356,-98.63014 23.63014,-98.116437 60.10274,104.280827 -19.52055,3.59589 -28.25342,-16.95206 -13.86987,14.38356 -15.41096,-7.19178 -28.76712,-19.00685 17.97945,44.17808 11.30137,-19.52054 16.95206,5.13698 30.82191,31.84932 12.32877,-26.71233 18.49315,-6.16438 44.69178,41.60958 L 596.40411,60.616438 579.96575,106.33562 592.29452,49.315069 689.89726,6.6780822 799.31507,176.71233 786.9863,342.12329 l -25.68493,123.28767 -75,-39.0411 82.19178,42.12329 70.89041,-29.79452 -9.24657,-135.61644 32.87671,8.21918 43.15068,23.63014 6.16439,93.49315 c 0,0 -2.0548,142.80822 1.02739,148.9726 3.0822,6.16438 7.19179,50.34247 7.19179,50.34247 v 31.84931 l 14.38356,218.83562 38.0137,46.23287 -10.27398,45.20548 -41.09589,-6.16438 -17.46575,-73.9726 26.71233,-12.32877 -25.68493,8.21918 -57.53425,-231.16438 -3.08219,-131.50685 5.13698,-183.90411 12.32877,-24.65754 -32.87671,293.83562 -42.12329,48.28767 77.0548,373.97265 59.58904,-9.2466 -10.27398,-60.61646 c 0,0 -56.50684,50.34246 -62.67123,50.34246 -6.16438,0 -70.89041,-32.87671 -70.89041,-32.87671 l 11.30137,-266.09589 -29.79452,9.24658 -1.0274,36.9863 h -54.45205 l -32.87671,-34.93151 -178.76713,-58.56164 -13.35616,69.86301 -14.38356,-85.27397 10.27397,-24.65754 42.12329,-105.82191 -2.0548,97.60274 -59.58904,175.68493 -44.17808,144.86301 -35.95891,141.7808 -20.54794,208.5617 57.53425,77.0548 115.06849,81.1643 73.9726,-344.178 95.54795,-347.26031 c 0,0 16.43835,2.05479 16.43835,13.35616 0,11.30137 -28.76712,261.98635 -28.76712,261.98635 l 41.09589,-4.1096 -16.43836,-238.3562 49.31507,-24.65753 15.41096,445.89043 -43.15068,-10.274 -6.16439,-168.4931 -172.60274,334.9315 -19.73618,89.0075 -59.83724,-43.3719 -5.05794,165.6712 19.66722,60.9328 40.62329,8.3062 -34.26494,-0.8489 -33.29591,89.2703 57.9831,19.4753 -41.92936,45.8838 61.35375,76.9423 84.49922,56.3776 14.34854,-152.9408 -108.09013,5.5776 117.37145,-11.1962 -128.56638,13.1734 34.93151,-327.7397 h 133.56165 l -34.93151,338.0137 42.12329,-336.9863 61.64383,-54.452 22.60274,-244.5206 h 230.13698 l 22.6027,-205.47945 h -59.58899 l 2.05479,-36.9863 322.6027,2.0548"
       id="path4540"
       sodipodi:nodetypes="ccccccccccsccccccccccccccccccccccccccccccccccccccsccccccccccccccccccsccccccccccccccccccccscccccccccccccccccccccccccccccccccc" /></g></svg>
