<?xml version="1.0" encoding="UTF-8" standalone="no"?>
<svg
   version="1.1"
   id="Layer_1"
   x="0px"
   y="0px"
   width="100%"
   viewBox="0 0 1024 624"
   enable-background="new 0 0 1024 624"
   xml:space="preserve"
   sodipodi:docname="book stack.svg"
   inkscape:version="1.2.2 (732a01da63, 2022-12-09)"
   xmlns:inkscape="http://www.inkscape.org/namespaces/inkscape"
   xmlns:sodipodi="http://sodipodi.sourceforge.net/DTD/sodipodi-0.dtd"
   xmlns="http://www.w3.org/2000/svg"
   xmlns:svg="http://www.w3.org/2000/svg"><defs
   id="defs24506" /><sodipodi:namedview
   id="namedview24504"
   pagecolor="#505050"
   bordercolor="#eeeeee"
   borderopacity="1"
   inkscape:showpageshadow="0"
   inkscape:pageopacity="0"
   inkscape:pagecheckerboard="0"
   inkscape:deskcolor="#505050"
   showgrid="false"
   inkscape:zoom="0.74450185"
   inkscape:cx="517.79589"
   inkscape:cy="300.87232"
   inkscape:window-width="1600"
   inkscape:window-height="837"
   inkscape:window-x="-8"
   inkscape:window-y="-8"
   inkscape:window-maximized="1"
   inkscape:current-layer="g27126" />



















<g
   id="g27126"
   transform="translate(84.39847,217.79461)"><path
     id="path27024"
     style="fill:#101010;fill-opacity:1"
     d="M 442.87209,61.687407 371.94922,200.15039 352.27344,211.25586 67.271484,178.88867 c -8.833861,2.7613 -17.484824,4.74089 -26.291015,7.13477 -8.577376,2.38419 -16.648946,5.34827 -24.982422,6.6914 -7.5915779,1.22354 -10.2620887,4.91842 -11.6464845,12.16407 -4.86058539,25.44008 -5.778692,50.88516 -2.0957031,76.49804 1.3508958,9.39436 1.4547058,9.29945 10.0507816,10.4961 31.960504,4.44934 63.913381,8.94974 95.867189,13.44726 32.45721,4.56826 64.90374,9.22993 97.37305,13.71094 26.86341,3.70735 53.75747,7.18895 80.63281,10.81055 24.89301,3.35433 49.78557,6.71848 74.66211,10.1914 3.78057,0.52784 5.79895,0.0692 7.25195,-4.26172 12.07297,-35.98601 24.99364,-71.67621 37.97461,-107.3457 5.40737,-14.85827 12.30988,-29.19555 16.45508,-44.47461 11.13777,-53.36066 9.51706,-80.44431 20.34865,-122.263763 z M 398.64062,204.55664 h 0.004 c 1.9153,-0.0496 3.34646,1.62761 3.38086,4.49414 0.052,4.35303 -2.10527,7.97482 -4.23047,11.57227 -1.0392,2.43475 -1.9061,4.58448 -2.7793,6.62109 v 0.006 l -14.47265,38.64453 v -0.0117 c -1.869,7.37401 -4.65714,14.4941 -7.17774,21.67578 -3.86267,11.00496 -7.27761,22.15114 -9.99218,33.48243 -0.5524,2.30595 -1.31314,3.64688 -2.55664,4.3457 l 6.21289,-76.53711 c 2.42097,-9.10575 6.86913,-12.30518 10.6289,-17.31445 l 10.9043,-14.98243 0.01,0.01 c 2.27447,-5.0312 5.40014,-9.80438 8.02734,-11.35742 0.7119,-0.42091 1.40284,-0.63045 2.04101,-0.64844 z"
     sodipodi:nodetypes="cccccscsccscscscccccccccccscccccsc" /><path
     id="path26909"
     d="m 439.14979,2.20566 c -29.811,24.25305 -76.24501,63.34896 -114.39649,93.07226 l -10.13086,6.64844 c -0.25698,-1.28687 -279.3332,-38.67987 -275.89062,-36.5332 -0.9742,2.36721 -2.73892,3.10427 -4.22852,4.10156 -9.14055,6.11943 -18.07946,12.5186 -26.570309,19.51172 -3.044085,2.50715 -6.4546,4.9388 -6.5,9.56445 -0.217198,22.13915 -1.371337,44.3211 4.707031,66.04493 2.181188,7.79539 2.009563,8.28107 9.949218,9.49414 12.46534,1.90458 24.9731,3.52594 38.30274,5.38476 l 299.08593,33.9668 19.67578,-11.10547 57.6836,-110.87891 c 6.14312,-16.94639 16.39938,-29.54757 18.97656,-45.2832 2.5236,-14.58633 -5.07803,-30.85166 -10.66406,-43.98828 z m -2.42578,19.01172 c 1.7991,0.93407 1.84984,2.73768 1.80664,4.28711 -0.30975,11.07504 2.13948,22.21818 -0.63672,32.6875 -6.67033,25.15452 -23.11529,48.6867 -33.01953,74.43359 -11.36245,23.23194 -21.33395,44.20172 -32.23438,60.49024 -4.57405,4.77125 -8.53974,4.13348 -11.88086,-1.23243 -6.77687,-14.21295 -16.61354,-37.14791 1.82227,-60.38867 7.40129,-10.12183 7.59943,-10.81387 24.38867,-30.76367 15.14784,-25.44458 31.04556,-50.44444 46.64648,-75.61914 0.8617,-1.39065 1.51214,-2.96171 3.10743,-3.89453 z"
     sodipodi:nodetypes="cccccscscccccccccscccccsc"
     style="fill:#2d2d2d;fill-opacity:1" /><path
     id="path27117"
     style="fill:#171717;fill-opacity:1"
     d="m 432.70117,-90.238281 -70.12305,82.048828 c -2.78973,3.9606482 -6.36552,6.1322225 -10.71093,6.5566405 L -3.2441406,-40.210938 c -2.1014224,-0.257479 -4.2011882,-0.543964 -6.3027344,-0.798828 -17.93401,6.32218 -35.859096,12.670155 -53.794922,18.986328 -4.704026,1.656536 -8.642403,4.187924 -11.615234,8.228516 -12.744873,17.3223156 -12.551634,42.704514 0.367187,59.875 1.702726,2.263106 3.504624,3.581361 6.421875,4.056641 9.93852,1.619086 19.906598,3.035235 29.867188,4.501953 L 313.89648,102.50195 c 4.36296,-0.1333 8.06226,-1.70454 11.08204,-4.748044 L 449.15625,-5.8476562 c 0.98427,-1.2449576 2.16841,-2.3761198 3.86523,-3.2246098 l 9.16797,-13.523437 c 3.97215,-14.433338 6.27536,-29.106497 5.5949,-45.412377 -0.0114,-7.452669 -4.99414,-19.005799 -9.90257,-20.692797 -14.01326,-1.459768 -11.16724,-0.07869 -25.18061,-1.537404 z m 9.70703,35.076172 c 0.72906,0.0179 1.47772,0.345671 2.25196,1.193359 6.78497,16.354258 -2.43375,49.7744556 -14.45704,60.0078125 C 398.21248,30.529254 366.2567,55.06001 333.31641,78.289062 c -7.02187,4.951742 -13.30891,3.808004 -20.05079,0.78711 -10.0683,-5.58931 -10.87223,-28.911712 -4.76171,-45.22461 6.10264,-5.591158 13.35586,-9.676279 20.20703,-14.269531 33.0372,-22.1495452 66.15294,-44.184933 99.25195,-66.242187 3.59957,-2.398763 7.25708,-4.713311 10.93164,-6.996094 0.91046,-0.565638 1.83529,-1.208326 2.79102,-1.427734 0.23894,-0.0549 0.47963,-0.08413 0.72265,-0.07813 z"
     sodipodi:nodetypes="cccccscsccccccccccsccscccsssss" /><path
     id="path27054"
     style="fill:#292929;fill-opacity:1;stroke-width:1.11565"
     d="m 208.46932,-217.70075 c -0.49757,0.0356 -0.99365,0.081 -1.48862,0.13724 -3.95989,0.44895 -7.84067,1.57767 -11.702,3.59335 -83.34897,43.47776 -153.294411,47.01805 -230.430751,86.44013 -4.57345,2.33726 -8.31799,5.7161 -10.98727,10.91285 -11.44354,22.278874 -9.37668,53.804504 4.78713,74.372444 1.86681,2.7109 3.76286,4.24193 6.71007,4.65942 10.04058,1.42219 20.09562,2.59046 30.1469796,3.82202 L 350.61574,4.8153343 c 4.34544,-0.42442 7.92221,-2.59609 10.71197,-6.55675 L 477.63787,-137.83139 c 0.89062,-1.60525 1.98914,-3.08092 3.62035,-4.23582 l 8.15339,-17.34658 c 0.79925,-9.49859 -0.98721,-37.6455 -9.73365,-38.22349 -78.33247,-5.22984 -161.18304,-11.62406 -233.66124,-17.31681 -8.95673,-0.70134 -17.9731,-0.63794 -26.8571,-2.1277 -3.65722,-0.61327 -7.20722,-0.86614 -10.6903,-0.61896 z m 251.12639,95.76274 c -30.12627,32.326524 -60.21453,64.701174 -91.38189,95.517054 -6.64392,6.56903 -13.00432,5.52086 -19.95736,2.16732 -10.46328,-6.34747 -12.98766,-35.27763 -8.09228,-55.90878 5.67911,-7.30897 12.61795,-12.81492 19.11793,-18.92839 31.3438,-29.480354 75.59614,-48.850744 107.00843,-78.220094 4.27413,0.60486 3.92685,41.19153 -6.69483,55.37289 z"
     sodipodi:nodetypes="cccccscccccccccsccsccccc" /></g></svg>
